<?xml version="1.0" encoding="UTF-8"?>
<svg width="400" height="400" viewBox="0 0 400 400" xmlns="http://www.w3.org/2000/svg">
  <defs>
    <linearGradient id="bg" x1="0%" y1="0%" x2="100%" y2="100%">
      <stop offset="0%" stop-color="#1e293b"/>
      <stop offset="100%" stop-color="#64748b"/>
    </linearGradient>
    <linearGradient id="shine" x1="0%" y1="0%" x2="100%" y2="100%">
      <stop offset="0%" stop-color="white" stop-opacity="0.12"/>
      <stop offset="100%" stop-color="white" stop-opacity="0"/>
    </linearGradient>
    <filter id="glow" x="-30%" y="-30%" width="160%" height="160%">
      <feGaussianBlur stdDeviation="6" result="blur"/>
      <feMerge><feMergeNode in="blur"/><feMergeNode in="SourceGraphic"/></feMerge>
    </filter>
  </defs>

  <!-- Background -->
  <rect width="400" height="400" rx="24" fill="url(#bg)"/>
  <rect width="400" height="400" rx="24" fill="url(#shine)"/>

  <!-- Decorative circles -->
  <circle cx="358" cy="42" r="88" fill="white" opacity="0.06"/>
  <circle cx="42" cy="358" r="66" fill="white" opacity="0.06"/>
  <circle cx="380" cy="380" r="110" fill="white" opacity="0.04"/>
  <circle cx="12" cy="12" r="50" fill="white" opacity="0.04"/>

  <!-- Icon glow halo -->
  <circle cx="200" cy="188" r="102" fill="white" opacity="0.08" filter="url(#glow)"/>
  <circle cx="200" cy="188" r="88" fill="white" opacity="0.08"/>

  <!-- Icon -->
  
    <g opacity="0.95">
      <rect x="180" y="153" width="40" height="92" rx="4" fill="white"/>
      <rect x="188" y="245" width="24" height="14" rx="2" fill="white" opacity="0.85"/>
      <line x1="200" y1="259" x2="200" y2="281" stroke="white" stroke-width="5" stroke-linecap="round"/>
      <rect x="168" y="160" width="12" height="7" rx="1" fill="white" opacity="0.8"/>
      <rect x="220" y="160" width="12" height="7" rx="1" fill="white" opacity="0.8"/>
      <rect x="188" y="178" width="24" height="52" rx="2" fill="#1e293b" opacity="0.2"/>
      <line x1="190" y1="190" x2="197" y2="190" stroke="#1e293b" stroke-width="2" opacity="0.35"/>
      <line x1="190" y1="205" x2="197" y2="205" stroke="#1e293b" stroke-width="2" opacity="0.35"/>
      <line x1="190" y1="220" x2="197" y2="220" stroke="#1e293b" stroke-width="2" opacity="0.35"/>
    </g>

  <!-- Bottom band -->
  <rect x="0" y="296" width="400" height="104" rx="0" fill="white" opacity="0.14"/>
  <rect x="0" y="376" width="400" height="24" fill="white" opacity="0.08"/>

  <!-- Divider -->
  <line x1="32" y1="304" x2="368" y2="304" stroke="white" stroke-width="1" opacity="0.2"/>

  <!-- Code badge -->
  <rect x="14" y="14" width="90" height="30" rx="8" fill="#0f172a" opacity="0.88"/>
  <text x="59" y="34" font-family="'Segoe UI',Arial,sans-serif" font-size="13" font-weight="700"
        fill="#e2e8f0" text-anchor="middle" letter-spacing="0.8">EQP-001</text>

  <!-- Brand -->
  <text x="386" y="33" font-family="'Segoe UI',Arial,sans-serif" font-size="11" font-style="italic"
        fill="white" text-anchor="end" opacity="0.7">BD</text>

  <!-- Product name lines -->
  <text x="200" y="329" font-family="'Segoe UI',Arial,sans-serif" font-size="17"
        font-weight="600" fill="white" text-anchor="middle">Jeringas 5ml x100</text>

  <!-- Category label -->
  <text x="200" y="392" font-family="'Segoe UI',Arial,sans-serif" font-size="9" font-weight="400"
        fill="white" text-anchor="middle" opacity="0.45" letter-spacing="2">EQUIPAMIENTO CLÍNICO</text>
</svg>